<svg width="45" height="37" viewBox="0 0 45 37" fill="none" xmlns="http://www.w3.org/2000/svg">
<path d="M31.2721 36.6012C28.1349 33.303 25.3596 30.407 22.343 27.2698C19.3666 30.4875 16.5913 33.5041 13.6551 36.7218C11.8452 34.9521 10.5179 33.665 9.19057 32.3779C6.33485 29.5624 3.51937 26.6665 0.663653 23.851C-0.221218 23.0063 -0.221218 22.403 0.663653 21.5584C1.83007 20.4322 2.83561 19.1853 4.08247 17.7775C7.21974 21.0757 10.0352 24.0521 12.9312 27.1089C14.5803 25.3794 15.8673 24.0521 17.3958 22.4834C14.4596 19.7484 11.5234 16.9731 8.30572 13.9967C10.2766 12.3476 11.8854 10.9801 13.6551 9.45172C16.1087 12.1466 18.8437 15.1631 21.9005 18.4613C25.1585 14.9218 27.9338 11.865 30.8297 8.6875C32.6799 10.6583 34.0876 12.1465 35.7367 13.9163C32.8005 16.5709 29.7437 19.3462 26.6869 22.1215C28.5773 23.9314 29.9046 25.2185 31.4733 26.7469C34.1279 23.851 36.9434 20.8344 40.322 17.1742C41.8906 19.1048 43.057 20.4724 44.143 21.9204C44.3843 22.2823 44.4245 23.1672 44.1832 23.4487C39.96 27.7927 35.7367 32.0562 31.2721 36.6012Z" fill="white"/>
<path d="M17.3594 5.269C19.2498 3.2177 20.6575 1.72952 22.2262 0C23.835 1.6893 25.2026 3.2177 26.7712 4.86678C25.4841 6.15387 24.2372 7.52138 22.8697 8.76824C22.5881 9.00957 21.7435 8.88893 21.3815 8.6476C20.014 7.60185 18.7269 6.43542 17.3594 5.269Z" fill="white"/>
</svg>
